<svg version="1.2" xmlns="http://www.w3.org/2000/svg" viewBox="0 0 1152 1152" width="1152" height="1152">
	<title>7080455_23864-ai</title>
	<style>
		.s0 { fill: #ea2054 } 
		.s1 { fill: #000000 } 
	</style>
	<g id="_Artboards_">
	</g>
	<g id="Layer 1">
		<g id="&lt;Group&gt;">
			<g id="&lt;Group&gt;">
				<g id="&lt;Group&gt;">
				</g>
				<g id="&lt;Group&gt;">
				</g>
			</g>
			<g id="&lt;Group&gt;">
				<g id="&lt;Group&gt;">
				</g>
				<g id="&lt;Group&gt;">
				</g>
			</g>
			<g id="&lt;Group&gt;">
				<g id="&lt;Group&gt;">
				</g>
				<g id="&lt;Group&gt;">
				</g>
			</g>
			<g id="&lt;Group&gt;">
				<g id="&lt;Group&gt;">
				</g>
				<g id="&lt;Group&gt;">
				</g>
			</g>
			<g id="&lt;Group&gt;">
				<g id="&lt;Group&gt;">
				</g>
				<g id="&lt;Group&gt;">
				</g>
			</g>
			<g id="&lt;Group&gt;">
				<g id="&lt;Group&gt;">
				</g>
				<g id="&lt;Group&gt;">
				</g>
			</g>
			<g id="&lt;Group&gt;">
				<g id="&lt;Group&gt;">
					<path id="&lt;Compound Path&gt;" class="s0" d="m1139.8 319.4l-15.3 12c-9-11.5-18.6-22.9-28.4-33.9l14.6-12.9c10 11.3 19.8 23 29.1 34.8zm-60.3-67.8l-13.7 13.9c-10.5-10.4-21.4-20.5-32.4-30.1l12.9-14.7c11.2 9.9 22.4 20.3 33.2 30.9zm-68.2-59.7l-11.9 15.4c-11.6-9-23.6-17.7-35.7-26l10.9-16.1c12.5 8.5 24.8 17.5 36.7 26.7zm-74.8-51.2l-10 16.7c-12.6-7.5-25.5-14.8-38.6-21.6l9-17.3c13.4 7 26.7 14.5 39.6 22.2zm-80.4-42l-7.9 17.8c-13.4-6-27.1-11.7-40.9-16.9l6.9-18.2c14.1 5.4 28.2 11.2 41.9 17.3zm-84.7-32.1l-5.8 18.6c-14.1-4.4-28.4-8.4-42.6-11.9l4.7-18.9c14.5 3.6 29.2 7.7 43.7 12.2zm-88-21.7l-3.5 19.2c-14.4-2.6-29.1-4.8-43.7-6.5l2.3-19.4c15 1.8 30.1 4.1 44.9 6.7zm-90.2-10.5l-1 19.4c-14.6-0.7-29.4-1-44.1-0.9l-0.2-19.4c15.1-0.2 30.4 0.1 45.3 0.9zm-89.2 20.4c-14.7 1-29.5 2.6-43.9 4.5l-2.7-19.3c14.9-2 30.1-3.5 45.2-4.6zm-87.5 11.8c-14.4 2.8-28.9 6.1-43.1 9.8l-4.9-18.9c14.6-3.8 29.5-7.2 44.2-10zm-85.5 22.1c-13.9 4.6-28 9.6-41.6 14.9l-7.1-18.1c14-5.5 28.4-10.6 42.7-15.3zm-82.3 32.1c-13.4 6.2-26.7 12.8-39.5 19.7l-9.2-17.2c13.2-7 26.9-13.8 40.6-20.1zm-77.9 41.6c-12.5 7.7-25 15.9-36.9 24.3l-11.2-15.9c12.3-8.7 25-17 37.9-25zm-72.2 50.8c-11.6 9.2-22.9 18.8-33.6 28.6l-13.1-14.4c11.1-10.1 22.7-20 34.5-29.4z"/>
				</g>
				<filter id="f0">
					<feFlood flood-color="#ea2054" flood-opacity="1" />
					<feBlend mode="normal" in2="SourceGraphic"/>
					<feComposite in2="SourceAlpha" operator="in" />
				</filter>
				<g id="&lt;Group&gt;" filter="url(#f0)">
					<path id="&lt;Path&gt;" class="s1" d="m1151.8 225.5l-19.5-1.2-5.6 95.9-95.1-12.6-2.6 19.3 115.9 15.3z"/>
				</g>
			</g>
		</g>
	</g>
</svg>