<svg version="1.2" xmlns="http://www.w3.org/2000/svg" viewBox="0 0 500 500" width="500" height="500">
	<title>hero-svg</title>
	<style>
		.s0 { fill: #ebebeb } 
		.s1 { fill: #e6e6e6 } 
		.s2 { fill: #f0f0f0 } 
		.s3 { fill: #f5f5f5 } 
		.s4 { fill: #fafafa } 
		.s5 { fill: #ffffff } 
		.s6 { opacity: .6;fill: #f0f0f0 } 
		.s7 { fill: #ea2054 } 
		.s8 { opacity: .6;fill: #ffffff } 
		.s9 { opacity: .1;fill: #000000 } 
		.s10 { opacity: .3;fill: #ffffff } 
		.s11 { opacity: .2;fill: #000000 } 
		.s12 { opacity: .4;fill: #000000 } 
		.s13 { fill: #7f3e3b } 
		.s14 { opacity: .2;fill: #ea2054 } 
		.s15 { opacity: .1;fill: #ffffff } 
		.s16 { fill: #263238 } 
		.s17 { fill: #630f0f } 
		.s18 { fill: #2c6bdb } 
		.s19 { opacity: .4;fill: #fafafa } 
	</style>
	<g id="freepik--background-complete--inject-64">
		<path id="Layer" class="s0" d="m-55 437h597v0.4h-597z"/>
		<path id="Layer" class="s0" d="m7.6 449.9h39.6v0.3h-39.6z"/>
		<path id="Layer" class="s0" d="m149.3 450.1h64.4v0.3h-64.4z"/>
		<path id="Layer" class="s0" d="m71.3 456.8h22.9v0.4h-22.9z"/>
		<path id="Layer" class="s0" d="m454.6 456.7h22.9v0.3h-22.9z"/>
		<path id="Layer" class="s0" d="m407.8 456.7h36.1v0.3h-36.1z"/>
		<path id="Layer" class="s0" d="m337 454.5h50.8v0.3h-50.8z"/>
		<path id="Layer" fill-rule="evenodd" class="s0" d="m228 376.8h-230.6q-1.3 0-2.6-0.6-1.2-0.6-2.2-1.6-0.9-1.1-1.5-2.5-0.5-1.5-0.5-3v-366.5q0-1.5 0.6-2.9 0.5-1.4 1.4-2.5 1-1 2.2-1.6 1.3-0.6 2.6-0.6h230.6q1.3 0 2.6 0.6 1.2 0.6 2.2 1.7 1 1 1.5 2.5 0.5 1.4 0.5 2.9v366.4q0 1.5-0.5 3-0.5 1.4-1.5 2.5-1 1-2.2 1.6-1.3 0.6-2.6 0.6zm-230.6-381.5q-1.3 0-2.5 0.5-1.2 0.6-2.1 1.6-0.9 1.1-1.4 2.4-0.5 1.4-0.5 2.8v366.5q0 1.5 0.5 2.8 0.5 1.4 1.4 2.4 0.9 1 2.1 1.6 1.2 0.6 2.5 0.6h230.6q1.3 0 2.5-0.6 1.2-0.6 2.1-1.6 0.9-1 1.4-2.4 0.5-1.3 0.5-2.8v-366.5q0-1.4-0.5-2.8-0.5-1.3-1.4-2.4-0.9-1-2.1-1.6-1.2-0.5-2.5-0.5z"/>
		<path id="Layer" fill-rule="evenodd" class="s0" d="m486.3 376.8h-230.6q-1.4 0-2.6-0.6-1.3-0.6-2.2-1.6-1-1.1-1.5-2.5-0.5-1.5-0.5-3v-366.5q0-1.5 0.5-2.9 0.5-1.4 1.5-2.5 1-1 2.2-1.6 1.2-0.6 2.6-0.6h230.6q1.3 0 2.5 0.6 1.3 0.6 2.2 1.6 1 1.1 1.5 2.5 0.5 1.4 0.5 2.9v366.5q0 1.5-0.5 2.9-0.5 1.5-1.4 2.5-1 1.1-2.2 1.7-1.3 0.6-2.6 0.6zm-230.6-381.5q-1.3 0-2.5 0.5-1.2 0.6-2.1 1.6-0.9 1.1-1.4 2.4-0.5 1.4-0.5 2.8v366.5q0 1.5 0.5 2.8 0.5 1.4 1.4 2.4 0.9 1 2.1 1.6 1.2 0.6 2.5 0.6h230.6q1.2 0 2.4-0.6 1.2-0.6 2.2-1.6 0.9-1 1.4-2.4 0.5-1.3 0.5-2.8v-366.5q0-1.4-0.5-2.8-0.5-1.3-1.4-2.4-1-1-2.2-1.6-1.2-0.5-2.4-0.5z"/>
		<path id="Layer" class="s1" d="m305.9 246.8h33.8v190.2h-33.8z"/>
		<path id="Layer" class="s2" d="m312.3 437h-6.5v-20.6h13.2l-6.7 20.6z"/>
		<path id="Layer" class="s1" d="m432.2 246.8h33.8v190.2h-33.8z"/>
		<path id="Layer" class="s2" d="m437.8 424.4h-131.9v-177.6h131.9z"/>
		<path id="Layer" class="s1" d="m310.8 364h58.9v34.5h-58.9z"/>
		<path id="Layer" class="s1" d="m374 364h58.8v34.5h-58.8z"/>
		<path id="Layer" class="s2" d="m397.6 369.8h11.6q1.9 0 3.8-0.4 1.8-0.5 3.5-1.3 1.7-0.9 3.3-2.1 1.5-1.2 2.8-2.7h-38.4q1.3 1.5 2.9 2.7 1.5 1.2 3.2 2.1 1.7 0.8 3.6 1.3 1.8 0.4 3.7 0.4z"/>
		<path id="Layer" class="s2" d="m333.8 369.8h11.7q1.9 0 3.7-0.4 1.8-0.5 3.6-1.3 1.7-0.9 3.2-2.1 1.6-1.2 2.9-2.7h-38.4q1.3 1.5 2.8 2.7 1.5 1.2 3.3 2.1 1.7 0.8 3.5 1.3 1.9 0.4 3.7 0.4z"/>
		<path id="Layer" class="s1" d="m310.8 310.3h58.9v34.6h-58.9z"/>
		<path id="Layer" class="s1" d="m374 310.3h58.8v34.6h-58.8z"/>
		<path id="Layer" class="s2" d="m397.6 316.1h11.6q1.9 0 3.8-0.4 1.8-0.5 3.5-1.3 1.7-0.8 3.3-2.1 1.5-1.2 2.8-2.7h-38.4q1.3 1.5 2.9 2.7 1.5 1.3 3.2 2.1 1.7 0.8 3.6 1.3 1.8 0.4 3.7 0.4z"/>
		<path id="Layer" class="s2" d="m333.8 316.1h11.7q1.9 0 3.7-0.4 1.8-0.4 3.6-1.3 1.7-0.8 3.2-2 1.6-1.2 2.9-2.8h-38.4q1.3 1.6 2.8 2.8 1.5 1.2 3.3 2 1.7 0.9 3.5 1.3 1.9 0.4 3.7 0.4z"/>
		<path id="Layer" class="s1" d="m310.8 256.7h58.9v34.5h-58.9z"/>
		<path id="Layer" class="s1" d="m374 256.7h58.8v34.5h-58.8z"/>
		<path id="Layer" class="s2" d="m397.6 262.5h11.6q1.9 0 3.8-0.5 1.8-0.4 3.5-1.2 1.7-0.9 3.3-2.1 1.5-1.2 2.8-2.7h-38.4q1.3 1.5 2.9 2.7 1.5 1.2 3.2 2.1 1.7 0.8 3.6 1.2 1.8 0.5 3.7 0.5z"/>
		<path id="Layer" class="s2" d="m333.8 262.5h11.7q1.9 0 3.7-0.5 1.8-0.4 3.6-1.2 1.7-0.9 3.2-2.1 1.6-1.2 2.9-2.7h-38.4q1.3 1.5 2.8 2.7 1.5 1.2 3.3 2.1 1.7 0.8 3.5 1.2 1.9 0.5 3.7 0.5z"/>
		<path id="Layer" class="s2" d="m431.4 437h6.4v-20.6h-13.1l6.7 20.6z"/>
		<path id="Layer" class="s3" d="m437 116.2l5.1 16h-5.1l-31.7-16h31.7z"/>
		<path id="Layer" class="s1" d="m442.1 116.2v16l-31.7-16h31.7z"/>
		<path id="Layer" class="s3" d="m312.6 116.2l5.2 16h-5.2l-31.7-16h31.7z"/>
		<path id="Layer" class="s1" d="m317.8 116.2v16l-31.7-16h31.7z"/>
		<path id="Layer" class="s1" d="m430.9 104.8h34.5v12.1h-34.5z"/>
		<path id="Layer" class="s3" d="m430.9 117h-171.5v-12.2h171.5z"/>
		<path id="Layer" class="s2" d="m396.1 62.5c0 0 0.4 42.3 13.3 42.3 12.9 0 13.2-42.3 13.2-42.3z"/>
		<path id="Layer" class="s2" d="m316.1 91c0 0 0.9 13.8 35.6 13.8 34.7 0 35.6-13.8 35.6-13.8z"/>
		<path id="Layer" class="s2" d="m212.9 437h2.3l6.6-36.8 1.2-6.4 7.2-40.1h27.6l15 83.3h2.3l-15.2-84.8q-0.1-0.3-0.2-0.4-0.1-0.2-0.2-0.4-0.2-0.1-0.4-0.2-0.2-0.1-0.4-0.1h-29.5q-0.2 0-0.3 0.1-0.2 0.1-0.4 0.2-0.1 0.2-0.2 0.4-0.1 0.1-0.2 0.4l-6.3 35.2-1.2 6.4z"/>
		<path id="Layer" class="s2" d="m168.6 437h2.3l14.9-83.3h27.6l7.2 40.1 1.2 6.4 6.6 36.8h2.3l-7.7-43.2-1.2-6.4-6.4-35.2q0-0.2-0.1-0.4-0.1-0.2-0.3-0.3-0.1-0.2-0.3-0.2-0.2-0.1-0.4-0.1h-29.4q-0.2 0-0.4 0-0.2 0.1-0.3 0.3-0.2 0.1-0.3 0.3-0.1 0.2-0.1 0.4z"/>
		<path id="Layer" class="s2" d="m262 341.4h-80.4q-1.3 0-2.6 0.6-1.3 0.6-2.3 1.7-0.9 1.1-1.5 2.6-0.5 1.4-0.5 3v0.2q0 0.6 0.2 1.1 0.2 0.6 0.5 1 0.4 0.4 0.9 0.6 0.4 0.2 0.9 0.2h89.2q0.5 0 0.9-0.2 0.5-0.2 0.9-0.6 0.3-0.4 0.5-1 0.2-0.5 0.2-1.1v-0.2q0-1.6-0.5-3-0.6-1.5-1.5-2.6-1-1.1-2.3-1.7-1.3-0.6-2.6-0.6z"/>
		<path id="Layer" class="s2" d="m132.3 437h2.3l6.6-36.8 1.2-6.4 7.1-40.1h27.6l15.1 83.3h2.3l-15.3-84.8q0-0.3-0.1-0.4-0.1-0.2-0.3-0.4-0.1-0.1-0.3-0.2-0.2-0.1-0.4-0.1h-29.5q-0.2 0-0.4 0.1-0.1 0.1-0.3 0.2-0.1 0.2-0.2 0.4-0.1 0.1-0.2 0.4l-6.3 35.2-1.2 6.4z"/>
		<path id="Layer" class="s2" d="m87.9 437h2.4l14.9-83.3h27.6l7.2 40.1 1.2 6.4 6.6 36.8h2.3l-7.7-43.2-1.2-6.4-6.4-35.2q0-0.3-0.1-0.4-0.1-0.2-0.3-0.4-0.1-0.1-0.3-0.2-0.2-0.1-0.4-0.1h-29.4q-0.2 0-0.4 0.1-0.2 0.1-0.3 0.2-0.2 0.2-0.3 0.4-0.1 0.1-0.1 0.4z"/>
		<path id="Layer" class="s2" d="m181.4 341.4h-80.4q-1.3 0-2.6 0.6-1.3 0.6-2.3 1.7-1 1.1-1.5 2.6-0.5 1.4-0.5 3v0.2q0 0.6 0.2 1.1 0.2 0.6 0.5 1 0.4 0.4 0.9 0.6 0.4 0.2 0.9 0.2h89.2q0.5 0 0.9-0.2 0.5-0.2 0.9-0.6 0.3-0.4 0.5-1 0.2-0.5 0.2-1.1v-0.2q0-1.6-0.5-3-0.6-1.5-1.5-2.6-1-1.1-2.2-1.7-1.3-0.6-2.7-0.6z"/>
		<path id="Layer" class="s1" d="m161.1 234.8h-115.4v-209.1h115.4z"/>
		<path id="Layer" class="s2" d="m157.6 234.8h-119.4v-209.1h119.4z"/>
		<path id="Layer" class="s1" d="m161.1 250.6h-115.4v-15.8h115.4z"/>
		<path id="Layer" class="s2" d="m145 250.6h-119.4v-15.8h119.4z"/>
		<path id="Layer" class="s4" d="m48.7 37.7h98.3v185.1h-98.3z"/>
		<path id="Layer" class="s5" d="m147.8 222.8l-34.5-185.1h-29.3l34.6 185.1h29.2z"/>
		<path id="Layer" class="s2" d="m139.9 200.7q0.1 0 0.3 0 0.1-0.1 0.2-0.2 0.1-0.2 0.2-0.3 0-0.2 0-0.3v-154.5q0-0.3-0.2-0.6-0.2-0.2-0.5-0.2-0.3 0-0.5 0.2-0.3 0.3-0.3 0.6v154.5q0 0.1 0.1 0.3 0 0.1 0.2 0.3 0.1 0.1 0.2 0.2 0.1 0 0.3 0z"/>
		<path id="Layer" class="s5" d="m112.3 222.8l-34.6-185.1h-11.4l34.6 185.1h11.4z"/>
		<path id="Layer" class="s1" d="m48.7 37.7h1.3v185.1h-1.3z"/>
		<path id="Layer" class="s6" d="m35.6 46.8h115.4l1-4.5h-115.4l-1 4.5z"/>
		<path id="Layer" class="s6" d="m35.6 57.4h115.4l1-4.5h-115.4l-1 4.5z"/>
		<path id="Layer" class="s6" d="m35.6 67.9h115.4l1-4.5h-115.4l-1 4.5z"/>
		<path id="Layer" class="s6" d="m35.6 78.5h115.4l1-4.5h-115.4l-1 4.5z"/>
		<path id="Layer" class="s6" d="m35.6 89h115.4l1-4.5h-115.4l-1 4.5z"/>
		<path id="Layer" class="s6" d="m35.6 99.6h115.4l1-4.5h-115.4l-1 4.5z"/>
	</g>
	<g id="freepik--Shadow--inject-64">
		<path id="freepik--path--inject-64" class="s3" d="m243.5 498c-128 0-231.5-6.8-231.5-15.3 0-8.4 103.5-15.3 231.5-15.3 128 0 231.5 6.9 231.5 15.3 0 8.5-103.5 15.3-231.5 15.3z"/>
	</g>
	<g id="freepik--Briefcases--inject-64">
		<path id="Layer" class="s7" d="m160.5 277c0-0.8 0.7-1.5 1.5-1.5h73.6c0.8 0 1.5 0.7 1.5 1.5v35.5c0 0.9-0.7 1.6-1.5 1.6h-73.6c-0.8 0-1.5-0.7-1.5-1.6z"/>
		<path id="Layer" class="s8" d="m160.5 277c0-0.8 0.7-1.5 1.5-1.5h73.6c0.8 0 1.5 0.7 1.5 1.5v35.5c0 0.9-0.7 1.6-1.5 1.6h-73.6c-0.8 0-1.5-0.7-1.5-1.6z"/>
		<path id="Layer" class="s9" d="m235.3 275.5h-73q-0.4 0-0.7 0.1-0.3 0.2-0.6 0.5-0.3 0.3-0.4 0.7-0.2 0.3-0.2 0.8v11l38 8.4q0.1 0.1 0.2 0.1 0.1 0 0.2 0 0.1 0 0.1 0 0.1 0 0.2-0.1l38-8.4v-11q0-0.4-0.1-0.8-0.2-0.4-0.4-0.7-0.3-0.3-0.6-0.5-0.4-0.1-0.7-0.1z"/>
		<path id="Layer" fill-rule="evenodd" class="s7" d="m237.6 261.5q0.3 0.2 0.6 0.4 0.2 0.3 0.4 0.7 0.1 0.4 0.1 0.8v20.8q0 0.4-0.1 0.7-0.1 0.4-0.3 0.6-0.2 0.3-0.5 0.5-0.3 0.2-0.6 0.3l-38 8.4q-0.1 0-0.2 0-0.1 0.1-0.2 0.1-0.1 0-0.2-0.1-0.1 0-0.1 0l-38.1-8.4q-0.3-0.1-0.6-0.3-0.2-0.2-0.5-0.5-0.2-0.2-0.3-0.6-0.1-0.3-0.1-0.7v-20.8q0-0.4 0.2-0.8 0.1-0.4 0.4-0.7 0.2-0.2 0.6-0.4 0.3-0.2 0.7-0.2h22.2v-4.2q0-1.3 0.5-2.5 0.4-1.2 1.2-2.1 0.9-1 1.9-1.5 1.1-0.5 2.3-0.5h19.9q1.1 0 2.2 0.5 1.1 0.5 1.9 1.5 0.8 0.9 1.2 2.1 0.5 1.2 0.5 2.5v4.2h22.3q0.3 0 0.7 0.2zm-50.1-0.2h22.7v-4.2q0-0.3-0.1-0.6-0.2-0.3-0.3-0.5-0.2-0.2-0.5-0.4-0.3-0.1-0.5-0.1h-19.9q-0.3 0-0.6 0.1-0.2 0.2-0.4 0.4-0.2 0.2-0.3 0.5-0.1 0.3-0.1 0.6z"/>
		<path id="Layer" fill-rule="evenodd" class="s8" d="m237.6 261.5q0.3 0.2 0.6 0.4 0.2 0.3 0.4 0.7 0.1 0.4 0.1 0.8v20.8q0 0.4-0.1 0.7-0.1 0.4-0.3 0.6-0.2 0.3-0.5 0.5-0.3 0.2-0.6 0.3l-38 8.4q-0.1 0-0.2 0-0.1 0.1-0.2 0.1-0.1 0-0.2-0.1-0.1 0-0.1 0l-38.1-8.4q-0.3-0.1-0.6-0.3-0.2-0.2-0.5-0.5-0.2-0.2-0.3-0.6-0.1-0.3-0.1-0.7v-20.8q0-0.4 0.2-0.8 0.1-0.4 0.4-0.7 0.2-0.2 0.6-0.4 0.3-0.2 0.7-0.2h22.2v-4.2q0-1.3 0.5-2.5 0.4-1.2 1.2-2.1 0.9-1 1.9-1.5 1.1-0.5 2.3-0.5h19.9q1.1 0 2.2 0.5 1.1 0.5 1.9 1.5 0.8 0.9 1.2 2.1 0.5 1.2 0.5 2.5v4.2h22.3q0.3 0 0.7 0.2zm-50.1-0.2h22.7v-4.2q0-0.3-0.1-0.6-0.2-0.3-0.3-0.5-0.2-0.2-0.5-0.4-0.3-0.1-0.5-0.1h-19.9q-0.3 0-0.6 0.1-0.2 0.2-0.4 0.4-0.2 0.2-0.3 0.5-0.1 0.3-0.1 0.6z"/>
		<path id="Layer" class="s7" d="m193.1 290.5c0-0.8 0.7-1.5 1.5-1.5h8.4c0.9 0 1.5 0.7 1.5 1.5v6.7c0 0.8-0.6 1.5-1.5 1.5h-8.4c-0.8 0-1.5-0.7-1.5-1.5z"/>
		<path id="Layer" class="s10" d="m193.1 290.5c0-0.8 0.7-1.5 1.5-1.5h8.4c0.9 0 1.5 0.7 1.5 1.5v6.7c0 0.8-0.6 1.5-1.5 1.5h-8.4c-0.8 0-1.5-0.7-1.5-1.5z"/>
		<path id="Layer" class="s7" d="m160.5 28.7c0-0.9 0.7-1.6 1.5-1.6h73.6c0.8 0 1.5 0.7 1.5 1.6v35.4c0 0.9-0.7 1.6-1.5 1.6h-73.6c-0.8 0-1.5-0.7-1.5-1.6z"/>
		<path id="Layer" class="s8" d="m160.5 28.7c0-0.9 0.7-1.6 1.5-1.6h73.6c0.8 0 1.5 0.7 1.5 1.6v35.4c0 0.9-0.7 1.6-1.5 1.6h-73.6c-0.8 0-1.5-0.7-1.5-1.6z"/>
		<path id="Layer" class="s9" d="m235.3 27.1h-73q-0.4 0-0.7 0.2-0.3 0.1-0.6 0.4-0.3 0.3-0.4 0.7-0.2 0.4-0.2 0.8v11l38 8.5q0.1 0 0.2 0 0.1 0 0.2 0 0.1 0 0.1 0 0.1 0 0.2 0l38-8.5v-11q0-0.4-0.1-0.8-0.2-0.4-0.4-0.7-0.3-0.3-0.6-0.4-0.4-0.2-0.7-0.2z"/>
		<path id="Layer" fill-rule="evenodd" class="s7" d="m237.6 13.1q0.3 0.2 0.6 0.5 0.2 0.3 0.4 0.7 0.1 0.3 0.1 0.7v20.9q0 0.3-0.1 0.6-0.1 0.4-0.3 0.6-0.2 0.3-0.5 0.5-0.3 0.2-0.6 0.2l-38 8.5q-0.1 0-0.2 0-0.1 0-0.2 0-0.1 0-0.2 0-0.1 0-0.1 0l-38.1-8.4q-0.3-0.1-0.6-0.3-0.3-0.1-0.5-0.4-0.2-0.3-0.3-0.6-0.1-0.4-0.1-0.7v-20.9q0-0.4 0.2-0.7 0.1-0.4 0.4-0.7 0.2-0.3 0.6-0.5 0.3-0.1 0.7-0.1h22.2v-4.3q0-1.3 0.5-2.5 0.4-1.2 1.2-2.1 0.9-0.9 1.9-1.4 1.1-0.5 2.3-0.5h19.9q1.1 0 2.2 0.5 1.1 0.5 1.9 1.4 0.8 0.9 1.2 2.1 0.5 1.2 0.5 2.5v4.3h22.3q0.3 0 0.7 0.1zm-50.1-0.1h22.7v-4.3q0-0.3-0.1-0.6-0.2-0.3-0.3-0.5-0.2-0.2-0.5-0.3-0.3-0.1-0.5-0.1h-19.9q-0.3 0-0.6 0.1-0.2 0.1-0.4 0.3-0.2 0.2-0.3 0.5-0.1 0.3-0.1 0.6z"/>
		<path id="Layer" fill-rule="evenodd" class="s8" d="m237.6 13.1q0.3 0.2 0.6 0.5 0.2 0.3 0.4 0.7 0.1 0.3 0.1 0.7v20.9q0 0.3-0.1 0.6-0.1 0.4-0.3 0.6-0.2 0.3-0.5 0.5-0.3 0.2-0.6 0.2l-38 8.5q-0.1 0-0.2 0-0.1 0-0.2 0-0.1 0-0.2 0-0.1 0-0.1 0l-38.1-8.4q-0.3-0.1-0.6-0.3-0.3-0.1-0.5-0.4-0.2-0.3-0.3-0.6-0.1-0.4-0.1-0.7v-20.9q0-0.4 0.2-0.7 0.1-0.4 0.4-0.7 0.2-0.3 0.6-0.5 0.3-0.1 0.7-0.1h22.2v-4.3q0-1.3 0.5-2.5 0.4-1.2 1.2-2.1 0.9-0.9 1.9-1.4 1.1-0.5 2.3-0.5h19.9q1.1 0 2.2 0.5 1.1 0.5 1.9 1.4 0.8 0.9 1.2 2.1 0.5 1.2 0.5 2.5v4.3h22.3q0.3 0 0.7 0.1zm-50.1-0.1h22.7v-4.3q0-0.3-0.1-0.6-0.2-0.3-0.3-0.5-0.2-0.2-0.5-0.3-0.3-0.1-0.5-0.1h-19.9q-0.3 0-0.6 0.1-0.2 0.1-0.4 0.3-0.2 0.2-0.3 0.5-0.1 0.3-0.1 0.6z"/>
		<path id="Layer" class="s7" d="m193.1 42.2c0-0.8 0.7-1.5 1.5-1.5h8.4c0.9 0 1.5 0.7 1.5 1.5v6.6c0 0.8-0.6 1.5-1.5 1.5h-8.4c-0.8 0-1.5-0.7-1.5-1.5z"/>
		<path id="Layer" class="s10" d="m193.1 42.2c0-0.8 0.7-1.5 1.5-1.5h8.4c0.9 0 1.5 0.7 1.5 1.5v6.6c0 0.8-0.6 1.5-1.5 1.5h-8.4c-0.8 0-1.5-0.7-1.5-1.5z"/>
		<path id="Layer" class="s7" d="m46.9 277c0-0.8 0.7-1.5 1.5-1.5h73.6c0.8 0 1.5 0.7 1.5 1.5v35.5c0 0.9-0.7 1.6-1.5 1.6h-73.6c-0.8 0-1.5-0.7-1.5-1.6z"/>
		<path id="Layer" class="s8" d="m46.9 277c0-0.8 0.7-1.5 1.5-1.5h73.6c0.8 0 1.5 0.7 1.5 1.5v35.5c0 0.9-0.7 1.6-1.5 1.6h-73.6c-0.8 0-1.5-0.7-1.5-1.6z"/>
		<path id="Layer" class="s9" d="m121.7 275.5h-73q-0.3 0-0.7 0.1-0.3 0.2-0.6 0.5-0.3 0.3-0.4 0.7-0.1 0.3-0.1 0.8v11l37.9 8.4q0.1 0.1 0.2 0.1 0.1 0 0.2 0 0.1 0 0.2 0 0.1 0 0.1-0.1l38-8.4v-11q0-0.4-0.1-0.8-0.1-0.4-0.4-0.7-0.3-0.3-0.6-0.5-0.3-0.1-0.7-0.1z"/>
		<path id="Layer" fill-rule="evenodd" class="s7" d="m123.9 261.5q0.4 0.2 0.6 0.4 0.3 0.3 0.4 0.7 0.2 0.4 0.2 0.8v20.8q0 0.4-0.1 0.7-0.1 0.4-0.3 0.6-0.2 0.3-0.5 0.5-0.3 0.2-0.6 0.3l-38.1 8.4q0 0-0.1 0-0.1 0.1-0.2 0.1-0.1 0-0.2-0.1-0.1 0-0.2 0l-38-8.4q-0.3-0.1-0.6-0.3-0.3-0.2-0.5-0.5-0.2-0.2-0.3-0.6-0.1-0.3-0.1-0.7v-20.8q0-0.4 0.1-0.8 0.2-0.4 0.4-0.7 0.3-0.2 0.6-0.4 0.4-0.2 0.7-0.2h22.3v-4.2q0-1.3 0.5-2.5 0.4-1.2 1.2-2.1 0.8-1 1.9-1.5 1.1-0.5 2.2-0.5h19.9q1.2 0 2.3 0.5 1 0.5 1.9 1.5 0.8 0.9 1.2 2.1 0.5 1.2 0.5 2.5v4.2h22.2q0.4 0 0.7 0.2zm-50-0.2h22.6v-4.2q0-0.3-0.1-0.6-0.1-0.3-0.3-0.5-0.2-0.2-0.4-0.4-0.3-0.1-0.6-0.1h-19.9q-0.2 0-0.5 0.1-0.3 0.2-0.4 0.4-0.2 0.2-0.4 0.5-0.1 0.3-0.1 0.6z"/>
		<path id="Layer" fill-rule="evenodd" class="s8" d="m123.9 261.5q0.4 0.2 0.6 0.4 0.3 0.3 0.4 0.7 0.2 0.4 0.2 0.8v20.8q0 0.4-0.1 0.7-0.1 0.4-0.3 0.6-0.2 0.3-0.5 0.5-0.3 0.2-0.6 0.3l-38.1 8.4q0 0-0.1 0-0.1 0.1-0.2 0.1-0.1 0-0.2-0.1-0.1 0-0.2 0l-38-8.4q-0.3-0.1-0.6-0.3-0.3-0.2-0.5-0.5-0.2-0.2-0.3-0.6-0.1-0.3-0.1-0.7v-20.8q0-0.4 0.1-0.8 0.2-0.4 0.4-0.7 0.3-0.2 0.6-0.4 0.4-0.2 0.7-0.2h22.3v-4.2q0-1.3 0.5-2.5 0.4-1.2 1.2-2.1 0.8-1 1.9-1.5 1.1-0.5 2.2-0.5h19.9q1.2 0 2.3 0.5 1 0.5 1.9 1.5 0.8 0.9 1.2 2.1 0.5 1.2 0.5 2.5v4.2h22.2q0.4 0 0.7 0.2zm-50-0.2h22.6v-4.2q0-0.3-0.1-0.6-0.1-0.3-0.3-0.5-0.2-0.2-0.4-0.4-0.3-0.1-0.6-0.1h-19.9q-0.2 0-0.5 0.1-0.3 0.2-0.4 0.4-0.2 0.2-0.4 0.5-0.1 0.3-0.1 0.6z"/>
		<path id="Layer" class="s7" d="m79.5 290.5c0-0.8 0.7-1.5 1.5-1.5h8.4c0.8 0 1.5 0.7 1.5 1.5v6.7c0 0.8-0.7 1.5-1.5 1.5h-8.4c-0.8 0-1.5-0.7-1.5-1.5z"/>
		<path id="Layer" class="s10" d="m79.5 290.5c0-0.8 0.7-1.5 1.5-1.5h8.4c0.8 0 1.5 0.7 1.5 1.5v6.7c0 0.8-0.7 1.5-1.5 1.5h-8.4c-0.8 0-1.5-0.7-1.5-1.5z"/>
		<path id="Layer" class="s7" d="m46.9 28.7c0-0.9 0.7-1.6 1.5-1.6h73.6c0.8 0 1.5 0.7 1.5 1.6v35.4c0 0.9-0.7 1.6-1.5 1.6h-73.6c-0.8 0-1.5-0.7-1.5-1.6z"/>
		<path id="Layer" class="s8" d="m46.9 28.7c0-0.9 0.7-1.6 1.5-1.6h73.6c0.8 0 1.5 0.7 1.5 1.6v35.4c0 0.9-0.7 1.6-1.5 1.6h-73.6c-0.8 0-1.5-0.7-1.5-1.6z"/>
		<path id="Layer" class="s9" d="m121.7 27.1h-73q-0.3 0-0.7 0.2-0.3 0.1-0.6 0.4-0.3 0.3-0.4 0.7-0.1 0.4-0.1 0.8v11l37.9 8.5q0.1 0 0.2 0 0.1 0 0.2 0 0.1 0 0.2 0 0.1 0 0.1 0l38-8.5v-11q0-0.4-0.1-0.8-0.1-0.4-0.4-0.7-0.3-0.3-0.6-0.4-0.3-0.2-0.7-0.2z"/>
		<path id="Layer" fill-rule="evenodd" class="s7" d="m123.9 13.1q0.4 0.2 0.6 0.5 0.3 0.3 0.4 0.7 0.2 0.3 0.2 0.7v20.8q0 0.4-0.1 0.7-0.1 0.3-0.3 0.6-0.2 0.3-0.5 0.5-0.3 0.2-0.6 0.2l-38.1 8.5q0 0-0.1 0-0.1 0-0.2 0-0.1 0-0.2 0-0.1 0-0.2 0l-38-8.4q-0.3-0.1-0.6-0.3-0.3-0.1-0.5-0.4-0.2-0.3-0.3-0.6-0.1-0.4-0.1-0.7v-20.9q0-0.4 0.1-0.7 0.2-0.4 0.4-0.7 0.3-0.3 0.6-0.5 0.4-0.1 0.7-0.1h22.3v-4.3q0-1.3 0.5-2.5 0.4-1.2 1.2-2.1 0.8-0.9 1.9-1.4 1.1-0.5 2.2-0.5h19.9q1.2 0 2.3 0.5 1 0.5 1.9 1.4 0.8 0.9 1.2 2.1 0.5 1.2 0.5 2.5v4.3h22.2q0.4 0 0.7 0.1zm-50-0.1h22.6v-4.3q0-0.3-0.1-0.6-0.1-0.3-0.3-0.5-0.2-0.2-0.4-0.3-0.3-0.1-0.6-0.1h-19.9q-0.2 0-0.5 0.1-0.3 0.1-0.5 0.3-0.1 0.2-0.3 0.5-0.1 0.3-0.1 0.6z"/>
		<path id="Layer" fill-rule="evenodd" class="s8" d="m123.9 13.1q0.4 0.2 0.6 0.5 0.3 0.3 0.4 0.7 0.2 0.3 0.2 0.7v20.8q0 0.4-0.1 0.7-0.1 0.3-0.3 0.6-0.2 0.3-0.5 0.5-0.3 0.2-0.6 0.2l-38.1 8.5q0 0-0.1 0-0.1 0-0.2 0-0.1 0-0.2 0-0.1 0-0.2 0l-38-8.4q-0.3-0.1-0.6-0.3-0.3-0.1-0.5-0.4-0.2-0.3-0.3-0.6-0.1-0.4-0.1-0.7v-20.9q0-0.4 0.1-0.7 0.2-0.4 0.4-0.7 0.3-0.3 0.6-0.5 0.4-0.1 0.7-0.1h22.3v-4.3q0-1.3 0.5-2.5 0.4-1.2 1.2-2.1 0.8-0.9 1.9-1.4 1.1-0.5 2.2-0.5h19.9q1.2 0 2.3 0.5 1 0.5 1.9 1.4 0.8 0.9 1.2 2.1 0.5 1.2 0.5 2.5v4.3h22.2q0.4 0 0.7 0.1zm-50-0.1h22.6v-4.3q0-0.3-0.1-0.6-0.1-0.3-0.3-0.5-0.2-0.2-0.4-0.3-0.3-0.1-0.6-0.1h-19.9q-0.2 0-0.5 0.1-0.3 0.1-0.5 0.3-0.1 0.2-0.3 0.5-0.1 0.3-0.1 0.6z"/>
		<path id="Layer" class="s7" d="m79.5 42.2c0-0.8 0.7-1.5 1.5-1.5h8.4c0.8 0 1.5 0.7 1.5 1.5v6.6c0 0.8-0.7 1.5-1.5 1.5h-8.4c-0.8 0-1.5-0.7-1.5-1.5z"/>
		<path id="Layer" class="s10" d="m79.5 42.2c0-0.8 0.7-1.5 1.5-1.5h8.4c0.8 0 1.5 0.7 1.5 1.5v6.6c0 0.8-0.7 1.5-1.5 1.5h-8.4c-0.8 0-1.5-0.7-1.5-1.5z"/>
		<path id="Layer" class="s7" d="m112.2 189.9h-63.5q-0.3 0-0.7-0.2-0.3-0.1-0.6-0.4-0.3-0.3-0.4-0.7-0.2-0.4-0.2-0.8v-34.4q0-0.1 0.1-0.2 0-0.1 0-0.2 0-0.1 0-0.2 0.1-0.1 0.1-0.2 0-0.1 0-0.1 0.1-0.1 0.1-0.1 0-0.1 0-0.1 0-0.1 0.1-0.1 0 0 0-0.1 0.1 0 0.1-0.1 0 0 0 0 0.1-0.1 0.1-0.1 0.1-0.1 0.3-0.3 0.1-0.1 0.3-0.2 0.2 0 0.4-0.1 0.1 0 0.3 0h60.1q-0.2 1.7-0.3 3.5-0.2 1.8-0.2 3.6-0.1 1.7-0.1 3.5 0 1.8 0.1 3.6c0 0.7 0 1.5 0.1 2.3q0.1 2.1 0.3 4.2 0.2 2.3 0.6 4.6 0.3 2.2 0.7 4.5 0.5 2.2 1 4.4 0.5 2.2 1.2 4.4z"/>
		<path id="Layer" class="s8" d="m112.2 189.9h-63.5q-0.3 0-0.7-0.2-0.3-0.1-0.6-0.4-0.3-0.3-0.4-0.7-0.2-0.4-0.2-0.8v-34.4q0-0.1 0.1-0.2 0-0.1 0-0.2 0-0.1 0-0.2 0.1-0.1 0.1-0.2 0-0.1 0-0.1 0.1-0.1 0.1-0.1 0-0.1 0-0.1 0-0.1 0.1-0.1 0 0 0-0.1 0.1 0 0.1-0.1 0 0 0 0 0.1-0.1 0.1-0.1 0.1-0.1 0.3-0.3 0.1-0.1 0.3-0.2 0.2 0 0.4-0.1 0.1 0 0.3 0h60.1q-0.2 1.7-0.3 3.5-0.2 1.8-0.2 3.6-0.1 1.7-0.1 3.5 0 1.8 0.1 3.6c0 0.7 0 1.5 0.1 2.3q0.1 2.1 0.3 4.2 0.2 2.3 0.6 4.6 0.3 2.2 0.7 4.5 0.5 2.2 1 4.4 0.5 2.2 1.2 4.4z"/>
		<path id="Layer" class="s9" d="m108.8 151.3q-0.2 1.7-0.3 3.5-0.2 1.8-0.2 3.6-0.1 1.7-0.1 3.5 0 1.8 0.1 3.6c0 0.7 0 1.5 0.1 2.3l-17.5 3.9-5.4 1.2q-0.1 0-0.1 0-0.1 0-0.2 0-0.1 0-0.2 0-0.1 0-0.2 0l-5.3-1.2-32.6-7.3v-11q0-0.1 0-0.2 0-0.1 0-0.2 0-0.1 0-0.2 0.1-0.1 0.1-0.2 0-0.1 0-0.1 0.1-0.1 0.1-0.1 0-0.1 0-0.1 0-0.1 0.1-0.1 0 0 0-0.1 0.1 0 0.1-0.1 0 0 0 0 0.1-0.1 0.1-0.1 0.1-0.1 0.3-0.3 0.1-0.1 0.3-0.2 0.2 0 0.4-0.1 0.1 0 0.3 0z"/>
		<path id="Layer" fill-rule="evenodd" class="s7" d="m110.5 140.6q-0.4 1.8-0.7 3.6-0.3 1.7-0.6 3.5-0.2 1.8-0.4 3.6-0.2 1.7-0.3 3.5-0.2 1.8-0.2 3.6-0.1 1.7-0.1 3.5 0 1.8 0.1 3.6l-17.4 3.8-5.4 1.2q-0.1 0-0.1 0.1-0.1 0-0.2 0-0.1 0-0.2 0-0.1-0.1-0.2-0.1l-5.3-1.1-32.6-7.3h-0.1q-0.3-0.1-0.6-0.3-0.3-0.2-0.5-0.4-0.2-0.3-0.3-0.7-0.1-0.3-0.1-0.7v-20.8q0-0.4 0.1-0.8 0.2-0.3 0.4-0.6 0.3-0.3 0.6-0.5 0.4-0.1 0.7-0.1h22.3v-4.3q0-1.3 0.5-2.5 0.4-1.2 1.2-2.1 0.8-1 1.9-1.5 1.1-0.5 2.2-0.5h19.9q1.2 0 2.3 0.5 1 0.5 1.9 1.5 0.8 0.9 1.2 2.1 0.5 1.2 0.5 2.5v4.3h10.3q-0.5 1.7-0.8 3.4zm-36.7-3.4h22.7v-4.3q0-0.3-0.1-0.6-0.1-0.3-0.3-0.5-0.2-0.2-0.4-0.3-0.3-0.1-0.6-0.2h-19.9q-0.2 0.1-0.5 0.2-0.2 0.1-0.4 0.3-0.2 0.2-0.4 0.5-0.1 0.3-0.1 0.6z"/>
		<path id="Layer" fill-rule="evenodd" class="s8" d="m110.5 140.6q-0.4 1.8-0.7 3.6-0.3 1.7-0.6 3.5-0.2 1.8-0.4 3.6-0.2 1.7-0.3 3.5-0.2 1.8-0.2 3.6-0.1 1.7-0.1 3.5 0 1.8 0.1 3.6l-17.4 3.8-5.4 1.2q-0.1 0-0.1 0.1-0.1 0-0.2 0-0.1 0-0.2 0-0.1-0.1-0.2-0.1l-5.3-1.1-32.6-7.3h-0.1q-0.3-0.1-0.6-0.3-0.3-0.2-0.5-0.4-0.2-0.3-0.3-0.7-0.1-0.3-0.1-0.7v-20.8q0-0.4 0.1-0.8 0.2-0.3 0.4-0.6 0.3-0.3 0.6-0.5 0.4-0.1 0.7-0.1h22.3v-4.3q0-1.3 0.5-2.5 0.4-1.2 1.2-2.1 0.8-1 1.9-1.5 1.1-0.5 2.2-0.5h19.9q1.2 0 2.3 0.5 1 0.5 1.9 1.5 0.8 0.9 1.2 2.1 0.5 1.2 0.5 2.5v4.3h10.3q-0.5 1.7-0.8 3.4zm-36.7-3.4h22.7v-4.3q0-0.3-0.1-0.6-0.1-0.3-0.3-0.5-0.2-0.2-0.4-0.3-0.3-0.1-0.6-0.2h-19.9q-0.2 0.1-0.5 0.2-0.2 0.1-0.4 0.3-0.2 0.2-0.4 0.5-0.1 0.3-0.1 0.6z"/>
		<path id="Layer" class="s7" d="m79.5 166.3c0-0.8 0.7-1.4 1.5-1.4h8.4c0.8 0 1.5 0.6 1.5 1.4v6.7c0 0.8-0.7 1.5-1.5 1.5h-8.4c-0.8 0-1.5-0.7-1.5-1.5z"/>
		<path id="Layer" class="s10" d="m79.5 166.3c0-0.8 0.7-1.4 1.5-1.4h8.4c0.8 0 1.5 0.6 1.5 1.4v6.7c0 0.8-0.7 1.5-1.5 1.5h-8.4c-0.8 0-1.5-0.7-1.5-1.5z"/>
		<path id="Layer" class="s7" d="m274.1 277c0-0.9 0.7-1.6 1.6-1.6h73.5c0.9 0 1.6 0.7 1.6 1.6v35.5c0 0.9-0.7 1.6-1.6 1.6h-73.5c-0.9 0-1.6-0.7-1.6-1.6z"/>
		<path id="Layer" class="s8" d="m274.1 277c0-0.9 0.7-1.6 1.6-1.6h73.5c0.9 0 1.6 0.7 1.6 1.6v35.5c0 0.9-0.7 1.6-1.6 1.6h-73.5c-0.9 0-1.6-0.7-1.6-1.6z"/>
		<path id="Layer" class="s9" d="m276 275.5h72.9q0.4 0 0.7 0.1 0.4 0.2 0.6 0.5 0.3 0.3 0.4 0.7 0.2 0.3 0.2 0.8v11l-38 8.4q-0.1 0.1-0.2 0.1-0.1 0-0.2 0-0.1 0-0.2 0-0.1 0-0.2-0.1l-37.9-8.4v-11q0-0.5 0.1-0.9 0.2-0.3 0.4-0.6 0.3-0.3 0.6-0.5 0.4-0.2 0.8-0.1z"/>
		<path id="Layer" fill-rule="evenodd" class="s7" d="m274.4 261.3h22.3v-4.2q0-1.3 0.4-2.5 0.5-1.2 1.3-2.1 0.8-1 1.9-1.5 1-0.5 2.2-0.5h19.9q1.2 0 2.2 0.5 1.1 0.5 1.9 1.5 0.8 0.9 1.3 2.1 0.4 1.2 0.4 2.5v4.2h22.3q0.4 0 0.7 0.2 0.3 0.2 0.6 0.4 0.3 0.3 0.4 0.7 0.1 0.4 0.1 0.8v20.8q0 0.4-0.1 0.7-0.1 0.4-0.3 0.6-0.2 0.3-0.5 0.5-0.2 0.2-0.5 0.3l-38.1 8.4q-0.1 0-0.2 0-0.1 0.1-0.2 0.1-0.1 0-0.2-0.1-0.1 0-0.2 0l-38-8.4q-0.3-0.1-0.6-0.3-0.3-0.2-0.5-0.5-0.2-0.2-0.3-0.6-0.1-0.3-0.1-0.7v-20.8q0-0.4 0.1-0.8 0.2-0.4 0.5-0.7 0.2-0.3 0.6-0.4 0.3-0.2 0.7-0.2zm49.4-4.2q0-0.3-0.1-0.6-0.1-0.3-0.3-0.5-0.2-0.2-0.5-0.4-0.2-0.1-0.5-0.1h-19.9q-0.3 0-0.5 0.1-0.3 0.2-0.5 0.4-0.2 0.2-0.3 0.5-0.1 0.3-0.1 0.6v4.2h22.7z"/>
		<path id="Layer" fill-rule="evenodd" class="s8" d="m274.4 261.3h22.3v-4.2q0-1.3 0.4-2.5 0.5-1.2 1.3-2.1 0.8-1 1.9-1.5 1-0.5 2.2-0.5h19.9q1.2 0 2.2 0.5 1.1 0.5 1.9 1.5 0.8 0.9 1.3 2.1 0.4 1.2 0.4 2.5v4.2h22.3q0.4 0 0.7 0.2 0.3 0.2 0.6 0.4 0.3 0.3 0.4 0.7 0.1 0.4 0.1 0.8v20.8q0 0.4-0.1 0.7-0.1 0.4-0.3 0.6-0.2 0.3-0.5 0.5-0.2 0.2-0.5 0.3l-38.1 8.4q-0.1 0-0.2 0-0.1 0.1-0.2 0.1-0.1 0-0.2-0.1-0.1 0-0.2 0l-38-8.4q-0.3-0.1-0.6-0.3-0.3-0.2-0.5-0.5-0.2-0.2-0.3-0.6-0.1-0.3-0.1-0.7v-20.8q0-0.4 0.1-0.8 0.2-0.4 0.5-0.7 0.2-0.3 0.6-0.4 0.3-0.2 0.7-0.2zm49.4-4.2q0-0.3-0.1-0.6-0.1-0.3-0.3-0.5-0.2-0.2-0.5-0.4-0.2-0.1-0.5-0.1h-19.9q-0.3 0-0.5 0.1-0.3 0.2-0.5 0.4-0.2 0.2-0.3 0.5-0.1 0.3-0.1 0.6v4.2h22.7z"/>
		<path id="Layer" class="s7" d="m306.7 290.5c0-0.8 0.7-1.5 1.5-1.5h8.5c0.8 0 1.4 0.7 1.4 1.5v6.7c0 0.8-0.6 1.5-1.4 1.5h-8.5c-0.8 0-1.5-0.7-1.5-1.5z"/>
		<path id="Layer" class="s10" d="m306.7 290.5c0-0.8 0.7-1.5 1.5-1.5h8.5c0.8 0 1.4 0.7 1.4 1.5v6.7c0 0.8-0.6 1.5-1.4 1.5h-8.5c-0.8 0-1.5-0.7-1.5-1.5z"/>
		<path id="Layer" class="s7" d="m274.1 28.6c0-0.8 0.7-1.5 1.6-1.5h73.5c0.9 0 1.6 0.7 1.6 1.5v35.5c0 0.9-0.7 1.6-1.6 1.6h-73.5c-0.9 0-1.6-0.7-1.6-1.6z"/>
		<path id="Layer" class="s8" d="m274.1 28.6c0-0.8 0.7-1.5 1.6-1.5h73.5c0.9 0 1.6 0.7 1.6 1.5v35.5c0 0.9-0.7 1.6-1.6 1.6h-73.5c-0.9 0-1.6-0.7-1.6-1.6z"/>
		<path id="Layer" class="s9" d="m276 27.1h72.9q0.4 0 0.7 0.2 0.4 0.1 0.6 0.4 0.3 0.3 0.4 0.7 0.2 0.4 0.2 0.8v11l-38 8.5q-0.1 0-0.2 0-0.1 0-0.2 0-0.1 0-0.2 0-0.1 0-0.2 0l-37.9-8.5v-11q0-0.4 0.2-0.8 0.1-0.4 0.4-0.7 0.2-0.3 0.6-0.4 0.3-0.2 0.7-0.2z"/>
		<path id="Layer" fill-rule="evenodd" class="s7" d="m274.4 13h22.3v-4.3q0-1.3 0.4-2.5 0.5-1.2 1.3-2.1 0.8-0.9 1.9-1.4 1-0.5 2.2-0.5h19.9q1.2 0 2.2 0.4 1.1 0.5 1.9 1.5 0.9 0.9 1.3 2.1 0.5 1.2 0.5 2.5v4.3h22.2q0.4 0 0.7 0.1 0.4 0.2 0.6 0.5 0.3 0.3 0.4 0.7 0.2 0.3 0.2 0.7v20.9q0 0.3-0.1 0.7-0.1 0.3-0.3 0.6-0.2 0.3-0.5 0.4-0.3 0.2-0.6 0.3l-38.1 8.4q-0.1 0-0.2 0-0.1 0-0.2 0-0.1 0-0.2 0-0.1 0-0.2 0l-38-8.5q-0.3 0-0.6-0.2-0.3-0.2-0.5-0.5-0.2-0.3-0.3-0.6-0.1-0.3-0.1-0.7v-20.8q0-0.4 0.1-0.8 0.2-0.3 0.5-0.6 0.2-0.3 0.6-0.5 0.3-0.1 0.7-0.1zm49.4-4.3q0-0.3-0.1-0.6-0.1-0.3-0.3-0.5-0.2-0.2-0.5-0.3-0.2-0.1-0.5-0.1h-19.9q-0.3 0-0.5 0.1-0.3 0.1-0.5 0.3-0.2 0.2-0.3 0.5-0.1 0.3-0.1 0.6v4.3h22.7z"/>
		<path id="Layer" fill-rule="evenodd" class="s8" d="m274.4 13h22.3v-4.3q0-1.3 0.4-2.5 0.5-1.2 1.3-2.1 0.8-0.9 1.9-1.4 1-0.5 2.2-0.5h19.9q1.2 0 2.2 0.4 1.1 0.5 1.9 1.5 0.9 0.9 1.3 2.1 0.5 1.2 0.5 2.5v4.3h22.2q0.4 0 0.7 0.1 0.4 0.2 0.6 0.5 0.3 0.3 0.4 0.7 0.2 0.3 0.2 0.7v20.9q0 0.3-0.1 0.7-0.1 0.3-0.3 0.6-0.2 0.3-0.5 0.4-0.3 0.2-0.6 0.3l-38.1 8.4q-0.1 0-0.2 0-0.1 0-0.2 0-0.1 0-0.2 0-0.1 0-0.2 0l-38-8.5q-0.3 0-0.6-0.2-0.3-0.2-0.5-0.5-0.2-0.3-0.3-0.6-0.1-0.3-0.1-0.7v-20.8q0-0.4 0.1-0.8 0.2-0.3 0.5-0.6 0.2-0.3 0.6-0.5 0.3-0.1 0.7-0.1zm49.4-4.3q0-0.3-0.1-0.6-0.1-0.3-0.3-0.5-0.2-0.2-0.5-0.3-0.2-0.1-0.5-0.1h-19.9q-0.3 0-0.5 0.1-0.3 0.1-0.5 0.3-0.2 0.2-0.3 0.5-0.1 0.3-0.1 0.6v4.3h22.7z"/>
		<path id="Layer" class="s7" d="m306.7 42.2c0-0.9 0.7-1.5 1.5-1.5h8.5c0.8 0 1.4 0.6 1.4 1.5v6.6c0 0.8-0.6 1.5-1.4 1.5h-8.5c-0.8 0-1.5-0.7-1.5-1.5z"/>
		<path id="Layer" class="s10" d="m306.7 42.2c0-0.9 0.7-1.5 1.5-1.5h8.5c0.8 0 1.4 0.6 1.4 1.5v6.6c0 0.8-0.6 1.5-1.4 1.5h-8.5c-0.8 0-1.5-0.7-1.5-1.5z"/>
		<path id="Layer" class="s7" d="m285.5 189.9h63.4q0.4 0 0.7-0.2 0.4-0.1 0.6-0.4 0.3-0.3 0.4-0.7 0.2-0.4 0.2-0.8v-34.4q0-0.1 0-0.2 0-0.1-0.1-0.2 0-0.1 0-0.2 0-0.1-0.1-0.2 0-0.1 0-0.1 0-0.1 0-0.1-0.1-0.1-0.1-0.1 0-0.1 0-0.1-0.1 0-0.1-0.1 0 0-0.1-0.1 0 0 0 0 0-0.1-0.1-0.1-0.1-0.2-0.3-0.3-0.1-0.1-0.3-0.2-0.2 0-0.3-0.1-0.2 0-0.4 0h-60q0.2 1.7 0.3 3.5 0.1 1.8 0.2 3.6 0 1.7 0 3.5 0 1.8 0 3.6c0 0.7 0 1.5-0.1 2.3q-0.2 2.1-0.4 4.2-0.2 2.3-0.5 4.6-0.3 2.2-0.8 4.5-0.4 2.2-0.9 4.4-0.6 2.2-1.2 4.4z"/>
		<path id="Layer" class="s8" d="m285.5 189.9h63.4q0.4 0 0.7-0.2 0.4-0.1 0.6-0.4 0.3-0.3 0.4-0.7 0.2-0.4 0.2-0.8v-34.4q0-0.1 0-0.2 0-0.1-0.1-0.2 0-0.1 0-0.2 0-0.1-0.1-0.2 0-0.1 0-0.1 0-0.1 0-0.1-0.1-0.1-0.1-0.1 0-0.1 0-0.1-0.1 0-0.1-0.1 0 0-0.1-0.1 0 0 0 0 0-0.1-0.1-0.1-0.1-0.2-0.3-0.3-0.1-0.1-0.3-0.2-0.2 0-0.3-0.1-0.2 0-0.4 0h-60q0.2 1.7 0.3 3.5 0.1 1.8 0.2 3.6 0 1.7 0 3.5 0 1.8 0 3.6c0 0.7 0 1.5-0.1 2.3q-0.2 2.1-0.4 4.2-0.2 2.3-0.5 4.6-0.3 2.2-0.8 4.5-0.4 2.2-0.9 4.4-0.6 2.2-1.2 4.4z"/>
		<path id="Layer" class="s9" d="m288.9 151.3q0.2 1.7 0.3 3.5 0.1 1.8 0.2 3.6 0 1.7 0 3.5 0 1.8 0 3.6c0 0.7 0 1.5-0.1 2.3l17.5 3.9 5.3 1.2q0.1 0 0.2 0 0.1 0 0.2 0 0.1 0 0.2 0 0 0 0.1 0l5.4-1.2 32.6-7.3v-11q0-0.1 0-0.2 0-0.1 0-0.2-0.1-0.1-0.1-0.2 0-0.1 0-0.2-0.1-0.1-0.1-0.1 0-0.1 0-0.1 0-0.1-0.1-0.1 0-0.1 0-0.1 0 0-0.1-0.1 0 0 0-0.1 0 0-0.1 0 0-0.1 0-0.1-0.2-0.2-0.3-0.3-0.2-0.1-0.3-0.2-0.2 0-0.4-0.1-0.2 0-0.4 0z"/>
		<path id="Layer" fill-rule="evenodd" class="s7" d="m286.4 137.2h10.3v-4.3q0-1.3 0.4-2.5 0.5-1.2 1.3-2.1 0.8-1 1.9-1.5 1-0.5 2.2-0.5h19.9q1.1 0 2.2 0.5 1.1 0.5 1.9 1.5 0.8 0.9 1.3 2.1 0.4 1.2 0.4 2.5v4.3h22.3q0.4 0 0.7 0.1 0.3 0.2 0.6 0.5 0.3 0.3 0.4 0.6 0.1 0.4 0.1 0.8v20.8q0 0.4-0.1 0.7-0.1 0.4-0.3 0.6-0.2 0.3-0.5 0.5-0.2 0.2-0.5 0.3h-0.1l-32.7 7.3-5.3 1.1q-0.1 0-0.2 0-0.1 0.1-0.2 0.1-0.1 0-0.2-0.1-0.1 0-0.2 0l-5.3-1.2-17.4-3.8q0.1-3.6 0-7.2-0.1-3.6-0.5-7.2-0.4-3.5-1-7-0.6-3.6-1.5-7zm37.4-4.2q0-0.3-0.1-0.6-0.1-0.3-0.3-0.5-0.2-0.3-0.4-0.4-0.3-0.1-0.6-0.1h-19.9q-0.2 0-0.5 0.1-0.2 0.1-0.4 0.4-0.2 0.2-0.3 0.5-0.1 0.3-0.1 0.6v4.2h22.6z"/>
		<path id="Layer" fill-rule="evenodd" class="s8" d="m286.4 137.2h10.3v-4.3q0-1.3 0.4-2.5 0.5-1.2 1.3-2.1 0.8-1 1.9-1.5 1-0.5 2.2-0.5h19.9q1.1 0 2.2 0.5 1.1 0.5 1.9 1.5 0.8 0.9 1.3 2.1 0.4 1.2 0.4 2.5v4.3h22.3q0.4 0 0.7 0.1 0.3 0.2 0.6 0.5 0.3 0.3 0.4 0.6 0.1 0.4 0.1 0.8v20.8q0 0.4-0.1 0.7-0.1 0.4-0.3 0.6-0.2 0.3-0.5 0.5-0.2 0.2-0.5 0.3h-0.1l-32.7 7.3-5.3 1.1q-0.1 0-0.2 0-0.1 0.1-0.2 0.1-0.1 0-0.2-0.1-0.1 0-0.2 0l-5.3-1.2-17.4-3.8q0.1-3.6 0-7.2-0.1-3.6-0.5-7.2-0.4-3.5-1-7-0.6-3.6-1.5-7zm37.4-4.2q0-0.3-0.1-0.6-0.1-0.3-0.3-0.5-0.2-0.3-0.4-0.4-0.3-0.1-0.6-0.1h-19.9q-0.2 0-0.5 0.1-0.2 0.1-0.4 0.4-0.2 0.2-0.3 0.5-0.1 0.3-0.1 0.6v4.2h22.6z"/>
		<path id="Layer" class="s7" d="m306.7 166.4c0-0.9 0.7-1.5 1.5-1.5h8.5c0.8 0 1.4 0.6 1.4 1.5v6.6c0 0.8-0.6 1.5-1.4 1.5h-8.5c-0.8 0-1.5-0.7-1.5-1.5z"/>
		<path id="Layer" class="s10" d="m306.7 166.4c0-0.9 0.7-1.5 1.5-1.5h8.5c0.8 0 1.4 0.6 1.4 1.5v6.6c0 0.8-0.6 1.5-1.4 1.5h-8.5c-0.8 0-1.5-0.7-1.5-1.5z"/>
		<path id="Layer" class="s7" d="m147.6 145.1c0-1.2 1-2.2 2.2-2.2h105.7c1.3 0 2.3 1 2.3 2.2v51c0 1.3-1 2.3-2.3 2.3h-105.7c-1.2 0-2.2-1-2.2-2.3z"/>
		<path id="Layer" fill-rule="evenodd" class="s7" d="m217 134.1h-28.6q-1.7 0-3.2-0.7c-0.9-0.5-1.8-1.2-2.6-2.1-0.8-0.8-1.4-1.8-1.8-2.9-0.4-1.2-0.6-2.4-0.6-3.6v-8.3c0-1.2 0.2-2.4 0.6-3.5 0.4-1.1 1-2.2 1.8-3 0.8-0.9 1.7-1.6 2.6-2q1.5-0.7 3.2-0.7h28.6q1.6 0 3.1 0.7c1 0.4 1.9 1.1 2.7 2 0.7 0.8 1.3 1.8 1.7 3 0.4 1.1 0.6 2.3 0.6 3.5v8.3c0.1 1.2-0.2 2.4-0.6 3.5-0.4 1.2-1 2.2-1.7 3-0.8 0.9-1.7 1.6-2.7 2.1q-1.5 0.7-3.1 0.7zm-28.6-20q-0.5 0-0.9 0.1-0.4 0.2-0.7 0.6-0.3 0.3-0.4 0.8-0.2 0.4-0.2 0.9v8.3q0 0.5 0.2 0.9 0.1 0.5 0.4 0.8 0.3 0.4 0.8 0.6 0.4 0.2 0.8 0.2h28.6q0.4 0 0.8-0.2 0.4-0.2 0.8-0.6 0.3-0.3 0.4-0.8 0.2-0.4 0.2-0.9v-8.3q0-0.5-0.2-0.9-0.1-0.5-0.4-0.9-0.4-0.3-0.8-0.5-0.4-0.2-0.8-0.2z"/>
		<path id="Layer" class="s11" d="m255.1 142.9h-104.8q-0.5 0-1 0.2-0.5 0.2-0.9 0.7-0.4 0.4-0.6 1-0.2 0.5-0.2 1.1v15.9l54.6 12.1q0.1 0.1 0.2 0.1 0.1 0 0.3 0 0.1 0 0.2 0 0.2 0 0.3-0.1l54.6-12.1v-15.9q0-0.6-0.2-1.1-0.3-0.6-0.6-1-0.4-0.5-0.9-0.7-0.5-0.2-1-0.2z"/>
		<path id="Layer" class="s7" d="m257.8 158.4l-54.6 12.1q-0.2 0-0.3 0.1-0.1 0-0.3 0-0.1 0-0.2 0-0.1-0.1-0.3-0.1l-54.6-12.1q-0.5-0.1-0.9-0.4-0.4-0.3-0.7-0.7-0.3-0.4-0.4-0.9-0.2-0.4-0.2-1v-29.8q0-0.6 0.2-1.1 0.2-0.6 0.6-1 0.4-0.4 0.8-0.7 0.5-0.2 1.1-0.2h109.4q0.5 0 1 0.2 0.4 0.3 0.8 0.7 0.4 0.4 0.6 1 0.2 0.5 0.2 1.1v29.9q0 0.5-0.2 1-0.1 0.5-0.4 0.9-0.3 0.4-0.7 0.6-0.4 0.3-0.9 0.4z"/>
		<path id="Layer" class="s7" d="m194.5 164.5c0-1.1 0.9-2.1 2.1-2.1h12.1c1.2 0 2.2 1 2.2 2.1v9.6c0 1.2-1 2.1-2.2 2.1h-12.1c-1.2 0-2.1-0.9-2.1-2.1z"/>
		<path id="Layer" class="s12" d="m194.5 164.5c0-1.1 0.9-2.1 2.1-2.1h12.1c1.2 0 2.2 1 2.2 2.1v9.6c0 1.2-1 2.1-2.2 2.1h-12.1c-1.2 0-2.1-0.9-2.1-2.1z"/>
	</g>
	<g id="freepik--Character--inject-64">
		<path id="Layer" class="s13" d="m399.8 173.5c1.4 3.2 2.4 6.2 3.6 9.4 1.2 3.1 2 6.3 3 9.5q0.7 2.5 1.3 5 0.6 2.4 1.1 4.9 0.6 2.6 1 5.1 0.4 2.5 0.7 5.1c0.2 0.8 0.2 1.7 0.3 2.7l0.1 1.3c0 0.3 0 0.4 0 0.7v0.9q0 0.8 0 1.5 0 0.8-0.1 1.6 0 0.7-0.1 1.5-0.1 0.8-0.2 1.5-0.3 1.3-0.5 2.6-0.3 1.3-0.6 2.6-0.3 1.3-0.7 2.6-0.4 1.2-0.8 2.5-0.7 2.3-1.6 4.7-0.8 2.3-1.8 4.6-0.9 2.3-2 4.5-1 2.3-2.2 4.5l-6-2.9c1.3-6.2 2.7-12.5 3.7-18.5q0.2-1.1 0.4-2.2 0.1-1.1 0.3-2.2 0.1-1.1 0.2-2.2 0.1-1.1 0.2-2.2 0-0.5 0-0.9 0-0.5 0-0.9 0-0.5 0-0.9 0-0.5-0.1-0.9l-0.1-0.9-0.2-1.1c-0.1-0.7-0.2-1.4-0.4-2.1q-0.4-2.3-0.9-4.5-0.5-2.2-1.1-4.4-0.6-2.2-1.2-4.4-0.7-2.1-1.4-4.3c-0.9-2.9-1.9-5.8-2.9-8.8-1-2.9-2.1-5.8-3.1-8.5z"/>
		<path id="Layer" class="s13" d="m394.5 248.1l-4.6 5.1 10.1 5.4c0 0 2.5-4.9 0.8-9.3z"/>
		<path id="Layer" class="s13" d="m386.1 260.9l8.6 3.9 5.3-6.3-10.1-5.3-3.8 7.7z"/>
		<path id="Layer" class="s14" d="m212.2 255.3c34.6-4.4 63.4-31.8 73.1-69.6 9.6-37.8-1.8-78.4-29-102.9-27.1-24.6-64.7-28.2-95.1-9.2-30.5 19-47.8 56.8-44 95.9 1.3 12.7 4.7 25 10.2 36.1 5.4 11.2 12.8 21.1 21.6 29.1 8.8 7.9 18.9 13.9 29.8 17.4 10.8 3.5 22.2 4.6 33.4 3.2z"/>
		<path id="Layer" class="s15" d="m149.7 82.1l130.7 118.1q0.9-2 1.6-4 1.2-3.3 2.3-6.7 1-3.4 1.7-6.9 0.8-3.5 1.4-7 0.5-3.5 0.8-7.1l-112.9-101.9q-3.5 1.3-6.8 2.9-3.4 1.6-6.6 3.6-3.2 2-6.3 4.2-3 2.3-5.9 4.8z"/>
		<path id="Layer" class="s15" d="m119.5 133.9l122.9 111q4.4-2.5 8.5-5.7 4-3.1 7.8-6.7 3.7-3.6 7.1-7.7 3.3-4.1 6.2-8.6l-134.2-121.3q-3.2 4.2-6 8.8-2.8 4.6-5.1 9.5-2.3 4.9-4.1 10.1-1.8 5.2-3.1 10.6z"/>
		<path id="Layer" fill-rule="evenodd" class="s7" d="m414.3 272.1q-0.3 2.2-1.2 4.1-0.8 1.9-2.1 3.5-1.3 1.6-2.9 2.7-0.7 0.5-1.4 1-0.7 0.4-1.5 0.7-0.8 0.2-1.6 0.4-0.8 0.2-1.6 0.3-0.6 0-1.2 0-0.6 0-1.1-0.2-0.6-0.1-1.2-0.3-0.6-0.2-1.1-0.6l-8.1-4.5c-5.5-3-10.8-6.1-16.3-9.2-5.4-3.2-10.8-6.3-16.1-9.5-5.3-3.2-10.7-6.3-16.1-9.6q-16-9.7-31.8-19.8-7.9-5.1-15.7-10.4-1.2-0.8-2.5-1-1.3-0.3-2.6 0-1.3 0.4-2.4 1.2-1.1 0.8-1.9 2.1c-29.7 48-87.2 62-131.8 32.2-44.6-29.9-61.3-93.6-38.4-146.2 23-52.6 77.9-76.3 126-54.4 48.1 21.9 73.2 82.1 57.5 138q-0.4 1.4-0.3 2.9 0.1 1.5 0.6 2.9 0.6 1.3 1.6 2.3 1 1.1 2.2 1.6c5.6 2.5 11.2 5.1 16.8 7.8q16.8 8.1 33.3 16.5 8.3 4.2 16.6 8.6c5.4 2.9 10.9 5.8 16.4 8.8 5.4 3 10.9 5.9 16.3 9l8.2 4.5q0.5 0.3 1 0.6 0.5 0.4 0.9 0.9 0.5 0.4 0.9 0.9 0.4 0.5 0.7 1.1 0.4 0.8 0.8 1.6 0.3 0.8 0.6 1.7 0.3 0.9 0.4 1.8 0.2 0.9 0.2 1.8 0.2 2.1-0.1 4.2zm-216.8-25.1c10.3 0.7 20.6-0.8 30.3-4.5 9.7-3.8 18.7-9.6 26.4-17.3 7.8-7.6 14.1-16.9 18.6-27.4 14-32.1 9.6-70.5-11.3-97.4-20.8-27-54-37-84-25.5-29.9 11.5-50.8 42.2-52.9 78-2.1 35.7 15.1 69.3 43.4 85.1 9.3 5.2 19.3 8.2 29.5 9z"/>
		<path id="Layer" class="s16" d="m354.8 131.8c0 0.8-0.4 1.4-0.9 1.4-0.4 0-0.8-0.6-0.8-1.4 0-0.8 0.4-1.5 0.8-1.5 0.5 0 0.9 0.7 0.9 1.5z"/>
		<path id="Layer" class="s17" d="m354.5 133.2q-0.4 0.9-0.7 1.8-0.4 0.9-0.8 1.8-0.4 0.8-0.9 1.6-0.5 0.9-1 1.7 0.4 0.2 0.8 0.4 0.4 0.2 0.8 0.3 0.4 0.1 0.9 0.1 0.4 0 0.9-0.1z"/>
		<path id="Layer" class="s16" d="m357.3 127.3q0.1 0 0.2-0.1 0.1-0.1 0.2-0.2 0-0.2 0-0.3-0.1-0.1-0.2-0.2-0.4-0.4-0.8-0.6-0.5-0.2-1-0.3-0.5-0.1-1-0.1-0.4 0.1-0.9 0.2-0.2 0.1-0.3 0.3-0.1 0.2 0 0.4 0.1 0.2 0.2 0.2 0.2 0.1 0.4 0 0.4-0.1 0.7-0.1 0.4-0.1 0.8 0 0.4 0.1 0.8 0.3 0.3 0.1 0.6 0.4 0.1 0 0.1 0.1 0 0 0 0 0.1 0 0.1 0 0 0 0.1 0z"/>
		<path id="Layer" class="s13" d="m378.9 137.8c-1.2 7.3-2.5 20.6 2 25.4 0 0-1.8 7.3-13.7 7.3-13.1 0-6.2-7.3-6.2-7.3 7.1-1.9 6.9-8 5.7-13.5z"/>
		<path id="Layer" class="s16" d="m383.2 158.6c1 0.4-0.3 7.1-0.3 7.1 0 0-1.6 4.6-22 3-1.5-0.1-0.9-6.5 0.6-7.5 4.8-2.9 18.5-3.8 21.7-2.6z"/>
		<path id="Layer" fill-rule="evenodd" class="s7" d="m424.3 437.6c-0.3-0.1-0.6-0.2-0.7-0.8q0-0.1 0-0.2 0-0.2 0-0.3 0-0.1 0-0.2 0.1-0.1 0.1-0.2c0.7-1.3 3.6-1.9 3.7-1.9q0.1 0 0.1 0 0 0 0 0 0.1 0 0.1 0 0 0.1 0 0.1 0 0 0 0.1 0.1 0 0.1 0 0 0.1-0.1 0.1 0 0 0 0c-0.4 0.9-2 3.2-3.1 3.3zm1.9-2.8q-0.4 0.1-0.8 0.3-0.4 0.2-0.7 0.5-0.3 0.2-0.7 0.5 0 0.1 0 0.1 0 0.1 0 0.2 0 0 0 0.1 0 0.1 0 0.2c0.1 0.4 0.3 0.4 0.3 0.4 0.6 0.1 1.9-1.3 2.7-2.5q-0.4 0-0.8 0.2z"/>
		<path id="Layer" fill-rule="evenodd" class="s7" d="m423.4 433.7q-0.1-0.1-0.1-0.2-0.1-0.2-0.1-0.3 0.1-0.1 0.1-0.3 0.1-0.1 0.1-0.2 0.1-0.1 0.2-0.2 0.1 0 0.2-0.1 0.1-0.1 0.2-0.1 0.1 0 0.3-0.1c1.3-0.1 3.2 1.8 3.3 1.8q0 0.1 0 0.1 0 0 0 0 0.1 0.1 0.1 0.1 0 0 0 0.1-0.1 0-0.1 0 0 0.1 0 0.1 0 0 0 0-0.1 0-0.1 0-0.1 0.1-0.1 0.1-0.1 0-0.2 0-0.1 0-0.2 0.1 0 0-0.1 0c-1.2 0.1-3.1-0.1-3.5-0.9zm3-0.1q-0.3-0.2-0.7-0.4-0.3-0.2-0.7-0.3-0.3-0.1-0.7-0.2-0.1 0-0.1 0-0.1 0.1-0.2 0.1-0.1 0-0.1 0.1-0.1 0.1-0.1 0.1c-0.2 0.3-0.1 0.4-0.1 0.4 0.3 0.6 2.1 0.9 3.3 0.7q-0.3-0.3-0.6-0.5z"/>
		<path id="Layer" fill-rule="evenodd" class="s7" d="m339.8 472.3q0-0.1-0.1-0.2 0-0.1 0-0.3 0-0.1 0-0.2 0.1-0.2 0.1-0.3 0.1-0.1 0.2-0.2 0-0.1 0.1-0.1 0.1-0.1 0.2-0.2 0.1 0 0.2 0c1.5-0.5 4.5 1.5 4.6 1.6q0.1 0 0.1 0 0 0.1 0 0.1 0 0 0.1 0.1 0 0 0 0-0.1 0.1-0.1 0.1 0 0 0 0.1 0 0-0.1 0 0 0 0 0-0.3 0.1-0.7 0.1-0.3 0.1-0.7 0.1-0.3 0.1-0.6 0.1-0.4 0-0.7 0c-1.1 0-2.2-0.2-2.6-0.8zm0.8-1.1q-0.1 0-0.2 0.1 0 0-0.1 0 0 0.1-0.1 0.1 0 0.1 0 0.2c-0.2 0.2-0.1 0.4 0 0.5 0.4 0.6 2.6 0.6 4.2 0.4-1.1-0.7-2.9-1.6-3.8-1.3z"/>
		<path id="Layer" fill-rule="evenodd" class="s7" d="m344.9 472.8c-1.1-0.5-3.2-2.6-3-3.8 0-0.2 0.2-0.6 0.7-0.6q0.2 0 0.4 0 0.1 0 0.3 0 0.1 0.1 0.3 0.2 0.1 0.1 0.2 0.2c1.2 1 1.4 3.7 1.4 3.8q0 0 0 0.1 0 0 0 0 0 0.1 0 0.1-0.1 0-0.1 0 0 0 0 0 0 0 0 0-0.1 0-0.1 0 0 0 0 0zm-2.1-4c-0.4 0-0.4 0.2-0.4 0.2-0.1 0.7 1.3 2.4 2.4 3.1q0-0.4-0.1-0.8-0.1-0.4-0.3-0.8-0.1-0.4-0.4-0.8-0.2-0.3-0.4-0.6-0.1-0.1-0.2-0.2 0 0-0.1-0.1-0.1 0-0.2 0-0.1-0.1-0.2-0.1z"/>
		<path id="Layer" class="s13" d="m354.7 472.6h-8.8l-0.9-23h8.8l0.9 23z"/>
		<path id="Layer" class="s13" d="m435.3 427.1l-6.8 6.2-17.5-13.7 6.9-6.2 17.4 13.7z"/>
		<path id="Layer" class="s16" d="m427.2 432.9l7-7.9q0.1-0.1 0.2-0.1 0.1-0.1 0.3-0.1 0.1 0 0.2 0 0.1 0.1 0.2 0.1l6.8 4.9q0.2 0.2 0.4 0.5 0.1 0.3 0.2 0.6 0 0.3-0.1 0.6-0.1 0.4-0.3 0.6c-2.5 2.7-3.9 3.8-6.9 7.3-1.9 2.1-6.5 8.5-9.2 11.4-2.6 2.9-5.5 0.4-4.6-1.1 3.7-6.5 5-12 5.2-15.3q0-0.2 0-0.4 0.1-0.2 0.2-0.4 0-0.2 0.1-0.4 0.2-0.2 0.3-0.3z"/>
		<path id="Layer" class="s16" d="m346 471.4h9.5q0.2 0 0.3 0.1 0.1 0 0.2 0.1 0.1 0.1 0.2 0.2 0 0.2 0.1 0.3l1.7 8.8q0.1 0.4 0 0.7-0.1 0.3-0.3 0.6-0.1 0.2-0.4 0.4-0.3 0.1-0.6 0.1c-3.4 0-8.4-0.3-12.8-0.3-5 0-9.4 0.3-15.4 0.3-3.6 0-4.6-4.1-3.1-4.5 6.9-1.7 12.5-1.9 18.4-6q0.3-0.2 0.5-0.3 0.3-0.1 0.5-0.2 0.3-0.1 0.6-0.2 0.3 0 0.6-0.1z"/>
		<path id="Layer" class="s7" d="m398.2 166.2c7.6 4 10.7 31.8 10.7 31.8l-17.5 7.7q-1-2.8-1.9-5.7-0.9-2.8-1.7-5.7-0.9-2.9-1.6-5.8-0.7-3-1.3-5.9c-2.5-12.6 5.5-20.7 13.3-16.4z"/>
		<path id="Layer" class="s10" d="m398.2 166.2c7.6 4 10.7 31.8 10.7 31.8l-17.5 7.7q-1-2.8-1.9-5.7-0.9-2.8-1.7-5.7-0.9-2.9-1.6-5.8-0.7-3-1.3-5.9c-2.5-12.6 5.5-20.7 13.3-16.4z"/>
		<path id="Layer" class="s11" d="m386.9 174.3q-0.3-0.1-0.5-0.2-0.2-0.1-0.5-0.2-0.2-0.1-0.4-0.2-0.3-0.1-0.5-0.2-0.3 1.1-0.4 2.3-0.1 1.1-0.2 2.2 0 1.2 0.2 2.3 0.1 1.2 0.3 2.3 0.6 2.9 1.4 5.9 0.7 2.9 1.5 5.8 0.8 2.9 1.7 5.7 1 2.9 2 5.7l5.8-2.5c-1.1-7.3-4.4-25.6-10.4-28.9z"/>
		<path id="Layer" class="s7" d="m347.5 165.9c0 0-9.4 12-0.6 85.8h47c0.3-8.1-4.2-47.9 2.7-86.3q-1.9-0.4-3.9-0.7-2-0.4-3.9-0.7-2-0.3-4-0.5-1.9-0.2-3.9-0.3-2.5-0.2-5-0.3-2.5 0-5 0-2.5 0-5 0-2.5 0.1-4.9 0.3-1.8 0.2-3.5 0.4-1.7 0.3-3.3 0.7-1.7 0.3-3.4 0.7-1.7 0.4-3.3 0.9z"/>
		<path id="Layer" class="s10" d="m347.5 165.9c0 0-9.4 12-0.6 85.8h47c0.3-8.1-4.2-47.9 2.7-86.3q-1.9-0.4-3.9-0.7-2-0.4-3.9-0.7-2-0.3-4-0.5-1.9-0.2-3.9-0.3-2.5-0.2-5-0.3-2.5 0-5 0-2.5 0-5 0-2.5 0.1-4.9 0.3-1.8 0.2-3.5 0.4-1.7 0.3-3.3 0.7-1.7 0.3-3.4 0.7-1.7 0.4-3.3 0.9z"/>
		<path id="Layer" class="s11" d="m356.9 181.8c-2.1-7.2-7.2-9.6-12.4-5.3-1.1 7-1.8 18.3-1 36.2l9.2-0.1c0 0 7.4-20.1 4.2-30.8z"/>
		<path id="Layer" class="s13" d="m355.2 178.8c-0.4 3.6-0.9 6.9-1.5 10.3-0.6 3.4-1.2 6.8-2 10.1q-0.6 2.6-1.3 5.2-0.7 2.5-1.4 5-0.8 2.5-1.7 5-0.9 2.4-1.9 4.8c-0.6 1.7-1.4 3.3-2.3 5q-0.6 1.2-1.3 2.4-0.2 0.4-0.5 0.9-0.3 0.4-0.5 0.7-0.3 0.4-0.6 0.8-0.3 0.4-0.6 0.7-0.7 0.7-1.3 1.2-0.7 0.6-1.4 1.1-0.7 0.5-1.5 0.9-0.8 0.4-1.6 0.7-0.6 0.2-1.3 0.4-0.6 0.3-1.3 0.4-0.7 0.2-1.4 0.3-0.6 0.2-1.3 0.3-1.2 0.2-2.4 0.2-1.3 0.1-2.5 0.2-1.2 0-2.4-0.1-1.3 0-2.5-0.2-2.4-0.2-4.6-0.7c-1.6-0.3-3.1-0.6-4.7-1.1l0.8-7.4q2.1-0.1 4.1-0.3 2-0.2 4-0.5 2.1-0.4 4.1-0.8 2-0.5 4-1.1 0.4-0.1 0.8-0.3 0.3-0.1 0.7-0.3 0.4-0.2 0.8-0.4 0.4-0.2 0.8-0.4 0.2-0.1 0.4-0.3 0.3-0.1 0.5-0.3 0.2-0.2 0.4-0.4 0.2-0.2 0.3-0.5c-0.1 0.1 0.8-1.5 1.3-2.7 0.5-1.1 1.1-2.7 1.6-4 1-2.8 1.9-5.8 2.7-8.8q1.1-4.5 2.1-9.1c0.6-3.2 1.2-6.3 1.8-9.5 0.6-3.2 1-6.4 1.4-9.4z"/>
		<path id="Layer" class="s7" d="m359.2 173.2c2.5 9.1-7.6 36.1-7.6 36.1l-21.1-6q0.5-3.2 1.1-6.4 0.7-3.1 1.5-6.3 0.8-3.1 1.8-6.1 1-3.1 2.1-6.1c6.8-16.8 19.2-16.1 22.2-5.2z"/>
		<path id="Layer" class="s10" d="m359.2 173.2c2.5 9.1-7.6 36.1-7.6 36.1l-21.1-6q0.5-3.2 1.1-6.4 0.7-3.1 1.5-6.3 0.8-3.1 1.8-6.1 1-3.1 2.1-6.1c6.8-16.8 19.2-16.1 22.2-5.2z"/>
		<path id="Layer" class="s13" d="m310.5 226l-9.9-0.3 4.7 11.7c0 0 4.1 0.6 7.4-5.6l3.5-4.7-4-0.9q-0.2-0.1-0.4-0.1-0.2 0-0.5-0.1-0.2 0-0.4 0-0.2 0-0.4 0z"/>
		<path id="Layer" class="s13" d="m294.3 227.9l5.7 9.6 5.4-0.1-4.8-11.7-6.3 2.2z"/>
		<path id="Layer" class="s11" d="m345 449.6l0.5 11.9h8.8l-0.5-11.9h-8.8z"/>
		<path id="Layer" class="s11" d="m417.9 413.4l-6.9 6.2 9 7.1 6.9-6.2-9-7.1z"/>
		<path id="Layer" class="s13" d="m378.4 130c-0.5 9.8-0.4 15.6-4.8 20.7-6.5 7.6-17.3 3.1-19.4-6.8-1.8-8.8-0.6-23.4 7.9-27.3 1.8-0.9 3.9-1.2 5.9-0.9 2 0.2 3.9 1.1 5.6 2.4 1.6 1.4 2.9 3.2 3.8 5.2 0.8 2.1 1.2 4.4 1 6.7z"/>
		<path id="Layer" class="s16" d="m385.4 120.9c0 0 4.6 1.5 3.2 7.4-2.2 9-7.3 19.3-13.8 20-8.2 0.8-11.9-8.8-13-18.6-4.9-3.8-8.5-7.4-7.3-11.3 1.8-6.1 8.3-11.3 18.6-10 10.3 1.4 15.5 8.9 12.3 12.5z"/>
		<path id="Layer" class="s13" d="m366.8 131.7q-0.1 0.9-0.2 1.8-0.2 0.9-0.5 1.7-0.4 0.8-0.8 1.6-0.4 0.8-1 1.5c-1.9 2.3-3.9 0.9-4.2-2-0.3-2.7 0.3-7 2.7-8.4 2.3-1.3 4.2 0.8 4 3.8z"/>
		<path id="Layer" class="s7" d="m363.6 251.7c0 0-3 66.8 2.8 95.2 9.1 44.8 49.3 80.7 49.3 80.7l12.9-11.6c0 0-33.1-27.8-36-65.2-2.7-33.5 1.2-72 1.2-99.1z"/>
		<path id="Layer" class="s11" d="m363.6 251.7c0 0-3 66.8 2.8 95.2 9.1 44.8 49.3 80.7 49.3 80.7l12.9-11.6c0 0-33.1-27.8-36-65.2-2.7-33.5 1.2-72 1.2-99.1z"/>
		<path id="Layer" class="s11" d="m368 271.5c-1.2-2.6-3.5 5.1-5.2 15.1 0 13.7 0.3 29.4 1.3 42.6 8.1-16.9 6.4-52.3 3.9-57.7z"/>
		<path id="Layer" class="s18" d="m409.8 424.8l4.9 4.3 14.9-13.7-4.5-4.6z"/>
		<path id="Layer" class="s19" d="m409.8 424.8l4.9 4.3 14.9-13.7-4.5-4.6z"/>
		<path id="Layer" class="s7" d="m346.9 251.7c0 0-13.2 63.3-14.1 93.5-1 34 9.4 114 9.4 114h14.9c0 0 1.8-80.7 2.5-111.6 0.7-33.6 18.2-95.9 18.2-95.9z"/>
		<path id="Layer" class="s11" d="m346.9 251.7c0 0-13.2 63.3-14.1 93.5-1 34 9.4 114 9.4 114h14.9c0 0 1.8-80.7 2.5-111.6 0.7-33.6 18.2-95.9 18.2-95.9z"/>
		<path id="Layer" class="s18" d="m339.4 452.5c-0.1 0 0.8 7 0.8 7h18.1l0.5-6.3z"/>
		<path id="Layer" class="s19" d="m339.4 452.5c-0.1 0 0.8 7 0.8 7h18.1l0.5-6.3z"/>
	</g>
</svg>